<svg width="194" height="325" viewBox="0 0 194 325" fill="none" xmlns="http://www.w3.org/2000/svg">
<path fill-rule="evenodd" clip-rule="evenodd" d="M137.757 0.144982C136.728 0.320824 133.359 0.842815 130.272 1.30413C124.876 2.11096 121.538 2.92758 113.429 5.42023C109.208 6.71776 108.814 6.86805 101.167 10.0956C98.1286 11.3773 95.1817 12.4267 94.6157 12.4267C94.0518 12.4267 93.5901 12.7264 93.5901 13.0936C93.5901 13.4602 92.6667 13.9918 91.539 14.2745C90.4113 14.5572 89.3155 15.014 89.107 15.2901C88.5368 16.0363 82.7089 19.1018 68.5119 26.1208C52.1505 34.2093 51.0335 34.7 41.9366 37.7981C39.2603 38.7099 36.3968 39.7417 35.5734 40.0926C33.8336 40.833 25.5527 42.7106 19.1536 43.8159C16.7109 44.2378 11.6578 44.5908 7.92448 44.5997L1.13768 44.6161L3.00923 46.0788C4.03862 46.8835 5.19142 47.5492 5.57015 47.5582C5.94974 47.5671 6.79189 48.0188 7.4417 48.5617C8.09215 49.1039 10.645 50.1607 13.1153 50.9098C15.5858 51.6585 18.2808 52.5416 19.1042 52.873C24.4418 55.0178 46.8863 53.6028 53.5399 50.7012C54.3634 50.3423 58.4058 48.9632 62.523 47.6367C66.6403 46.31 70.6828 44.9197 71.5062 44.5474C77.0641 42.0324 95.9476 35.6691 104.071 33.5736C113.925 31.0318 128.247 30.4306 135.745 32.2442C150.292 35.761 158.847 43.2843 164.665 57.6703C164.997 58.4929 165.684 60.1756 166.192 61.4094C168.922 68.0525 170.41 86.7877 169.346 101.156C168.401 113.915 167.329 123.733 166.646 125.885C166.386 126.705 165.856 129.527 165.467 132.157C164.752 137.002 163.503 143.576 161.362 153.766C160.713 156.851 159.882 160.926 159.513 162.821C159.143 164.716 158.486 167.577 158.052 169.178C157.618 170.779 156.543 174.948 155.667 178.445C152.475 191.176 152.562 190.87 147.213 207.747C146.734 209.263 146.094 210.749 145.792 211.049C145.49 211.351 145.243 212.082 145.243 212.669C145.243 213.259 144.783 214.8 144.221 216.096C143.662 217.393 142.604 219.969 141.875 221.819C141.145 223.669 140.089 226.245 139.528 227.541C138.966 228.835 138.506 230.266 138.506 230.719C138.506 231.171 138.17 231.541 137.757 231.541C137.347 231.541 137.009 231.984 137.009 232.525C137.009 234.249 128.072 251.122 123.668 257.713C114.144 271.963 102.722 280.191 95.8136 277.786C92.8603 276.758 90.5964 274.952 90.5964 273.626C90.5964 273.1 90.3432 272.67 90.0347 272.67C88.9559 272.67 86.0516 261.402 84.6388 251.731C83.2983 242.547 82.3664 237.144 81.6749 234.532C81.294 233.093 80.394 229.727 79.6748 227.054C78.0109 220.865 73.1171 210.361 70.0966 206.491C67.1525 202.721 62.3389 198.231 59.9029 196.982C58.8737 196.454 57.8631 195.826 57.6571 195.587C56.9235 194.738 52.3923 192.767 49.9915 192.254C48.6494 191.968 47.2142 191.466 46.8025 191.138C45.3442 189.978 31.4539 189.101 24.9656 189.757C16.9131 190.574 10.2288 193.644 5.95569 198.493C3.07071 201.769 -0.556418 208.037 0.071687 208.663C0.246161 208.837 2.36474 207.158 4.77971 204.931C7.19467 202.702 9.44432 200.88 9.77965 200.88C10.1143 200.88 10.8337 200.456 11.3778 199.941C11.9214 199.423 14.3879 197.993 16.8584 196.762C20.993 194.702 21.9751 194.523 29.2102 194.527C36.5145 194.531 37.332 194.683 40.7672 196.686C46.032 199.756 50.9886 205.237 53.8259 211.128C55.1725 213.923 56.5426 216.727 56.8705 217.357C57.1983 217.987 57.7207 219.658 58.0316 221.072C58.3422 222.483 58.8661 224.154 59.1963 224.786C61.2504 228.712 64.295 251.322 64.3541 263.095C64.402 272.585 66.4076 295.594 67.3725 297.722C67.7453 298.546 68.2708 300.396 68.5404 301.837C69.2021 305.376 73.5555 314.361 76.0598 317.359C77.179 318.698 79.8131 320.876 81.9132 322.198C85.475 324.437 86.1835 324.601 92.5412 324.622C96.2881 324.635 100.161 324.271 101.15 323.813C102.139 323.356 104.278 322.404 105.903 321.699C115.101 317.704 125.493 307.926 132.408 296.762C133.864 294.412 135.249 292.319 135.487 292.115C136.934 290.865 149.364 267.54 152.028 261.079C152.366 260.257 153.46 257.732 154.46 255.471C156.496 250.856 159.05 244.625 160.739 240.14C161.36 238.496 162.126 236.633 162.443 236.003C162.76 235.373 163.258 233.779 163.548 232.459C163.837 231.141 164.384 229.87 164.765 229.636C165.146 229.402 165.458 228.471 165.46 227.571C165.463 226.668 165.969 224.967 166.584 223.79C167.199 222.611 167.701 221.08 167.701 220.388C167.701 219.694 167.997 218.806 168.361 218.417C168.722 218.025 169.75 215.181 170.644 212.096C171.539 209.012 172.59 205.904 172.982 205.19C173.371 204.475 173.691 203.421 173.691 202.844C173.691 202.27 174.222 199.994 174.871 197.786C175.522 195.581 176.563 191.924 177.186 189.662C177.81 187.4 178.606 184.539 178.957 183.306C179.306 182.072 180.291 178.033 181.144 174.332C181.997 170.63 183.008 166.255 183.389 164.61C184.029 161.85 184.957 157.314 187.18 146.063C192.285 120.247 194.729 87.3665 193.223 64.7747C192.376 52.0519 192.093 49.9848 189.697 38.9745C186.004 22.0047 180.929 13.6433 170.488 7.32128C165.269 4.16018 160.933 2.44604 155.237 1.29072C150.669 0.36404 140.411 -0.308247 137.757 0.144982Z" fill="url(#paint0_linear_219_52)"/>
<defs>
<linearGradient id="paint0_linear_219_52" x1="26.637" y1="-22.3777" x2="26.637" y2="324.622" gradientUnits="userSpaceOnUse">
<stop stop-color="#24BCDC"/>
<stop offset="1" stop-color="#24DCB0"/>
</linearGradient>
</defs>
</svg>
