<svg width="681" height="347" viewBox="0 0 681 347" fill="none" xmlns="http://www.w3.org/2000/svg">
<path d="M647.927 121.854C648.59 119.087 649.863 117.039 651.744 115.711C653.735 114.272 655.948 113.441 658.382 113.22C660.927 112.999 663.582 113.331 666.348 114.216C669.114 114.991 671.604 116.209 673.817 117.869C674.923 118.755 675.808 120.028 676.472 121.688C677.136 123.238 677.468 124.788 677.468 126.338C677.468 129.991 677.247 133.699 676.804 137.463C676.472 141.116 676.085 144.825 675.642 148.588C675.089 153.127 674.481 157.61 673.817 162.038C673.264 166.466 672.821 171.005 672.489 175.654C671.936 180.857 669.391 183.68 664.855 184.123C662.753 184.344 660.65 184.4 658.548 184.289C656.557 184.178 654.51 183.957 652.408 183.625C649.973 183.182 648.148 182.13 646.931 180.47C645.824 178.809 645.216 176.817 645.105 174.492C644.331 165.857 644.109 157.057 644.441 148.09C644.884 139.013 646.046 130.268 647.927 121.854ZM654.233 81.8367C654.123 77.1873 654.731 74.0877 656.059 72.5379C657.497 70.9881 660.484 70.1025 665.021 69.8811C666.348 69.7704 667.621 69.7151 668.838 69.7151C670.166 69.7151 671.493 69.8258 672.821 70.0472C676.472 70.6007 678.851 71.7077 679.957 73.3681C681.064 74.9179 681.285 77.5194 680.621 81.1725C680.4 82.0581 680.234 82.8883 680.123 83.6632C680.123 84.3274 680.013 85.1023 679.791 85.9879C679.238 88.4233 678.298 90.5819 676.97 92.4638C675.642 94.235 674.038 95.6187 672.157 96.615C670.276 97.5006 668.229 97.9434 666.017 97.9434C663.804 97.9434 661.536 97.3346 659.212 96.1169C658.106 95.5634 657.11 94.6778 656.225 93.4601C655.45 92.1317 654.842 90.8587 654.399 89.641C653.957 88.4233 653.791 87.1502 653.901 85.8218C654.123 84.4934 654.233 83.165 654.233 81.8367Z" fill="white"/>
<path d="M540.462 145.932C541.568 144.382 542.564 142.998 543.449 141.78C544.334 140.452 545.219 139.124 546.104 137.795C549.977 131.928 554.181 126.338 558.717 121.024C563.254 115.711 568.233 110.895 573.654 106.578C577.858 103.146 582.339 100.822 587.097 99.6039C591.855 98.3862 596.889 98.4969 602.2 99.936C609.613 101.929 614.979 106.689 618.298 114.216C620.4 118.755 622.115 123.847 623.443 129.493C624.881 135.138 625.988 140.895 626.762 146.762C627.647 152.518 628.256 158.164 628.588 163.699C629.03 169.123 629.362 173.883 629.583 177.979C629.805 182.075 629.196 185.119 627.758 187.112C626.319 188.994 623.719 190.045 619.958 190.267C617.524 190.488 615.366 190.488 613.485 190.267C611.604 190.045 609.945 189.436 608.506 188.44C607.179 187.444 606.017 185.949 605.021 183.957C604.136 181.964 603.417 179.307 602.863 175.986C601.646 168.016 600.485 160.156 599.378 152.408C598.382 144.659 596.889 136.688 594.897 128.496C594.344 126.172 593.68 124.179 592.906 122.519C592.131 120.747 591.08 119.585 589.752 119.032C588.535 118.478 587.042 118.644 585.271 119.53C583.612 120.415 581.62 122.242 579.297 125.009C573.654 131.541 568.675 138.515 564.36 145.932C560.045 153.238 556.449 161.153 553.573 169.677C552.024 173.994 549.921 177.093 547.266 178.975C544.611 180.857 541.457 181.854 537.806 181.964C534.155 182.186 530.891 181.411 528.014 179.64C525.248 177.868 523.091 174.879 521.542 170.673C521.099 169.677 520.546 167.518 519.882 164.197C519.329 160.876 518.61 157.278 517.725 153.404C516.95 149.419 515.954 145.599 514.737 141.946C513.52 138.183 512.137 135.36 510.588 133.478C509.039 131.485 507.214 130.932 505.111 131.817C503.12 132.592 500.852 135.526 498.307 140.618C496.979 143.275 495.818 146.153 494.822 149.253C493.826 152.352 492.886 155.562 492 158.883C491.115 162.204 490.23 165.581 489.345 169.012C488.571 172.333 487.63 175.654 486.524 178.975C485.528 182.075 484.2 184.344 482.541 185.783C480.992 187.222 478.834 188.053 476.068 188.274C474.74 188.385 473.357 188.496 471.919 188.606C470.481 188.606 468.987 188.496 467.438 188.274C464.229 187.831 461.74 186.78 459.97 185.119C458.31 183.348 457.204 180.691 456.65 177.149C455.876 172.389 455.212 167.629 454.659 162.869C454.216 158.109 453.94 153.348 453.829 148.588C453.276 138.736 452.944 128.995 452.833 119.364C452.833 109.733 453.608 100.047 455.157 90.3052C456.153 83.4418 458.697 78.7924 462.791 76.357C466.885 73.8109 471.808 73.8663 477.562 76.5231C480.881 78.0729 482.707 80.6743 483.038 84.3274C483.37 89.3089 483.702 94.235 484.034 99.1058C484.366 103.977 484.643 108.903 484.864 113.884C484.975 115.323 484.975 116.818 484.864 118.367C484.864 119.917 484.864 121.91 484.864 124.345C485.97 122.795 486.856 121.633 487.519 120.858C488.294 119.973 488.958 119.142 489.511 118.367C492.056 114.604 495.154 111.892 498.805 110.231C502.567 108.46 506.384 107.685 510.256 107.906C514.239 108.128 518.001 109.401 521.542 111.725C525.082 113.939 527.904 117.15 530.006 121.356C531.887 125.231 533.602 129.216 535.151 133.312C536.81 137.297 538.581 141.504 540.462 145.932Z" fill="white"/>
<path d="M408.847 51.2836C408.957 49.8445 409.068 48.2947 409.179 46.6342C409.4 44.8631 409.732 43.2026 410.174 41.6528C410.617 39.9923 411.281 38.4978 412.166 37.1694C413.051 35.8411 414.268 34.9001 415.817 34.3466C419.026 33.2396 422.234 32.7415 425.443 32.8522C428.762 32.8522 431.971 33.6271 435.069 35.1769C436.95 36.0625 438.222 37.4462 438.886 39.3281C439.55 41.0993 439.937 42.9258 440.048 44.8077C440.158 51.1176 440.269 57.2614 440.38 63.2392C440.49 69.2169 440.435 75.25 440.214 81.3385C439.771 97.0578 439.273 112.611 438.72 127.998C438.277 143.275 437.78 158.662 437.226 174.16C437.005 178.92 436.065 182.407 434.405 184.621C432.745 186.724 429.979 188.053 426.107 188.606C421.349 189.16 417.2 188.385 413.66 186.282C410.23 184.068 408.183 180.857 407.519 176.651C406.855 173.883 406.413 171.171 406.191 168.514C405.97 165.747 405.804 162.979 405.693 160.212C405.583 150.802 405.583 141.559 405.693 132.482C405.804 123.404 405.97 114.438 406.191 105.582C406.523 96.615 406.911 87.6484 407.353 78.6817C407.796 69.7151 408.294 60.5824 408.847 51.2836Z" fill="white"/>
<path d="M360.896 121.854C361.56 119.087 362.833 117.039 364.714 115.711C366.705 114.272 368.918 113.441 371.352 113.22C373.897 112.999 376.552 113.331 379.318 114.216C382.084 114.991 384.574 116.209 386.786 117.869C387.893 118.755 388.778 120.028 389.442 121.688C390.106 123.238 390.438 124.788 390.438 126.338C390.438 129.991 390.216 133.699 389.774 137.463C389.442 141.116 389.055 144.825 388.612 148.588C388.059 153.127 387.45 157.61 386.786 162.038C386.233 166.466 385.791 171.005 385.459 175.654C384.906 180.857 382.361 183.68 377.825 184.123C375.722 184.344 373.62 184.4 371.518 184.289C369.526 184.178 367.48 183.957 365.377 183.625C362.943 183.182 361.118 182.13 359.901 180.47C358.794 178.809 358.186 176.817 358.075 174.492C357.3 165.857 357.079 157.057 357.411 148.09C357.854 139.013 359.015 130.268 360.896 121.854ZM367.203 81.8367C367.092 77.1873 367.701 74.0877 369.029 72.5379C370.467 70.9881 373.454 70.1025 377.99 69.8811C379.318 69.7704 380.591 69.7151 381.808 69.7151C383.135 69.7151 384.463 69.8258 385.791 70.0472C389.442 70.6007 391.821 71.7077 392.927 73.3681C394.034 74.9179 394.255 77.5194 393.591 81.1725C393.37 82.0581 393.204 82.8883 393.093 83.6632C393.093 84.3274 392.982 85.1023 392.761 85.9879C392.208 88.4233 391.268 90.5819 389.94 92.4638C388.612 94.235 387.008 95.6187 385.127 96.615C383.246 97.5006 381.199 97.9434 378.986 97.9434C376.773 97.9434 374.505 97.3346 372.182 96.1169C371.075 95.5634 370.08 94.6778 369.194 93.4601C368.42 92.1317 367.811 90.8587 367.369 89.641C366.926 88.4233 366.76 87.1502 366.871 85.8218C367.092 84.4934 367.203 83.165 367.203 81.8367Z" fill="white"/>
<path d="M643.841 279.733C649.271 274.043 655.218 267.06 659.742 262.532C664.267 257.876 666.206 259.169 661.81 264.989C657.544 270.681 652.116 275.207 647.203 279.993C645.909 281.287 644.231 282.322 642.807 283.356C642.163 283.744 641.256 284.261 640.352 284.519C637.12 285.426 635.052 283.614 634.794 280.38C634.664 279.088 634.794 277.664 635.182 276.372C636.473 269.647 639.448 263.697 642.55 257.746C643.067 256.582 643.714 255.42 644.358 254.513C645.265 252.961 646.169 251.539 644.748 250.117C645.005 249.599 645.265 249.21 645.393 249.082C648.625 247.658 650.048 244.554 651.986 241.968C656.899 234.983 661.81 227.741 667.757 221.663C668.791 220.626 669.955 219.591 671.119 218.687C671.636 218.039 672.54 217.522 673.444 217.135C674.608 216.617 675.902 216.23 677.064 217.135C678.228 218.169 678.228 219.591 677.581 220.756C676.676 222.697 675.772 224.507 674.608 226.189C669.051 233.431 662.587 239.639 655.735 245.589C653.667 247.53 651.727 249.47 650.048 251.926C646.556 258.134 643.197 264.214 640.611 270.681C639.965 272.878 639.318 275.207 638.801 277.406C637.25 283.356 641.903 281.415 643.841 279.733ZM671.246 223.732C668.144 226.706 656.252 239.768 655.476 243.519C659.612 239.511 680.813 217.135 671.246 223.732Z" fill="white"/>
<path d="M642.98 262.275C639.103 265.896 625.528 272.103 625.528 263.179C625.528 261.757 625.788 260.333 626.045 258.651C621.651 261.368 617.515 264.214 612.989 266.541C611.955 267.318 610.534 267.448 609.37 267.577C607.689 267.835 606.138 267.318 605.364 265.896C604.457 264.344 604.847 262.92 605.751 261.627C606.525 260.593 607.172 259.816 608.206 258.911C612.732 255.03 618.032 252.961 624.236 253.478C625.141 253.608 626.175 253.348 626.951 252.444C628.113 251.279 629.277 249.987 630.441 248.822C630.828 248.305 631.345 247.658 631.862 247.53C632.379 247.4 633.286 247.4 633.803 247.658C634.19 248.175 634.447 248.822 634.32 249.599C634.19 250.504 633.803 251.279 633.286 252.186C632.252 254.385 625.528 266.8 633.413 264.471C635.482 263.954 637.939 262.402 640.394 261.24C641.041 260.98 641.816 260.333 642.592 260.463C643.497 260.723 644.144 261.757 642.98 262.275ZM608.983 263.826C614.023 262.92 620.1 259.428 623.59 256.065C618.419 256.454 611.955 259.428 608.983 263.826Z" fill="white"/>
<path d="M584.837 232.396C580.829 232.914 580.442 231.104 580.699 230.587C581.216 229.81 582.122 228.775 585.742 229.035C591.429 229.552 597.763 229.552 603.71 228.775C603.968 228.645 604.227 228.388 604.357 228.128C609.14 221.403 608.364 221.791 613.277 215.323C613.794 214.288 615.085 213.126 616.119 214.031C616.509 214.288 616.636 215.453 616.636 216.1C616.509 216.747 615.732 217.522 615.475 218.039C611.596 223.342 613.404 221.533 608.364 228.905C615.732 230.197 632.407 229.94 645.465 228.515C649.601 228.128 653.35 227.741 655.806 227.87C660.072 228.128 659.425 230.07 655.806 230.844C646.369 232.526 614.311 232.266 606.166 232.009C600.219 239.511 593.11 250.762 589.361 257.876C586.259 263.954 581.993 274.173 590.395 270.681C594.144 269.257 600.478 264.989 604.485 261.627C605.261 261.11 605.779 260.463 606.553 260.075C607.587 259.428 608.364 258.911 609.14 259.946C609.785 260.98 609.268 262.015 608.364 262.792C606.166 264.731 597.376 271.069 590.655 273.396C579.02 277.406 582.639 265.119 585.095 259.428C589.103 249.857 596.859 239.768 601.642 232.139C595.955 232.266 589.621 232.396 584.837 232.396Z" fill="white"/>
<path d="M566.941 269.387C571.467 267.705 577.931 264.084 582.454 261.757C587.884 259.298 589.176 262.662 584.135 264.989C578.835 267.448 573.275 269.774 567.847 271.973C566.037 272.751 564.228 272.878 562.547 272.233C560.996 271.456 560.349 270.034 560.737 267.835C561.124 266.153 561.9 264.989 562.288 263.437C563.839 259.686 565.262 256.842 559.832 258.651C556.988 260.203 554.015 261.885 551.3 263.567C548.715 265.378 546.26 267.318 543.545 269.257C543.157 269.647 542.768 270.164 542.123 270.422C541.347 270.809 540.313 271.456 539.279 270.422C538.374 269.517 538.632 268.482 539.279 267.705C540.7 265.636 541.993 263.567 543.285 261.497C544.966 259.298 546.517 256.972 548.068 254.643C548.455 254.125 548.715 253.738 548.975 253.091C550.266 251.409 551.43 250.634 552.204 251.409C552.981 251.926 552.721 253.091 551.43 255.16C550.266 256.972 549.232 258.911 547.938 260.593C547.034 261.885 541.087 268.095 545.353 264.471C549.102 261.368 553.498 258.394 557.764 256.324C561.383 254.513 566.684 252.831 567.201 258.523C567.588 261.24 565.649 263.437 564.486 266.023C563.322 269.257 563.452 270.809 566.941 269.387Z" fill="white"/>
<path d="M542.268 260.593C543.045 260.205 543.819 259.946 544.596 259.686C545.63 259.558 546.277 259.686 546.794 260.593C547.181 261.497 546.794 262.402 546.017 262.792C539.683 266.023 532.574 267.705 525.723 268.095C521.069 268.352 513.959 267.835 515.769 260.85C516.931 257.489 517.578 256.582 520.423 255.03C523.525 253.608 527.014 253.091 530.117 253.091C531.41 253.221 532.444 253.995 532.702 255.29C532.961 256.582 532.444 257.746 531.28 258.394C529.599 259.428 527.661 260.205 525.593 260.85C524.042 261.24 522.231 261.368 520.55 261.368C517.965 261.368 517.965 262.792 519.129 263.954C522.491 267.318 538.649 263.954 542.268 260.593ZM529.212 256.842C531.54 253.868 523.782 256.842 519.516 259.686C522.103 259.946 527.144 258.781 529.212 256.842Z" fill="white"/>
<path d="M404.059 296.419C389.97 302.369 373.939 310.129 368.511 306.507C368.511 306.248 368.382 306.118 368.382 305.86C365.279 302.109 388.159 298.746 405.74 291.246C407.162 290.599 408.196 289.952 409.23 288.4C423.192 266.93 436.894 245.459 450.857 223.86C451.374 223.085 451.761 222.18 452.408 221.016C449.82 221.016 447.752 220.756 445.556 221.016C434.05 222.05 423.449 223.342 412.592 225.801C411.687 226.059 410.394 227.093 409.489 225.412C409.23 224.377 410.136 222.05 412.075 221.663C425.39 217.265 439.092 217.394 452.795 217.394C454.346 217.394 455.121 216.747 456.027 215.583C457.319 213.384 458.482 211.315 460.033 209.504C460.81 208.34 461.585 207.564 462.619 206.788C462.878 206.4 463.783 206.4 463.912 206.788C464.3 207.047 464.429 207.952 464.3 208.469C464.17 209.245 463.783 209.892 463.265 210.409C461.972 212.737 460.81 214.936 459.259 217.394C463.525 217.782 467.402 218.039 471.41 218.687C480.33 220.109 489.377 221.663 497.781 224.894C501.401 226.189 504.76 227.87 507.605 230.715C511.612 234.595 512.258 239.511 509.544 244.554C507.605 248.175 504.633 250.892 501.658 253.221C495.194 258.394 488.215 262.532 480.975 265.896C470.634 270.809 460.293 275.337 449.693 279.733C437.671 284.519 425.647 288.529 413.626 293.055C411.3 293.832 409.877 294.997 408.585 296.936C406.645 300.04 404.447 304.049 402.251 307.025C392.685 318.276 401.604 301.334 404.059 296.419ZM415.047 287.365C415.177 287.625 415.177 287.752 415.307 287.882C415.953 287.752 416.341 287.625 416.728 287.365C420.09 286.33 423.579 285.036 427.071 283.874C443.616 277.664 459.904 271.456 475.934 263.826C484.207 259.946 492.092 255.547 499.333 249.599C501.528 247.788 503.599 245.719 505.277 243.262C508.38 239.381 507.735 235.5 503.726 232.784C501.271 231.104 498.426 229.68 495.584 228.518C483.69 224.507 471.538 222.308 458.999 221.403C457.318 221.273 456.284 221.79 455.638 223.215C451.891 229.68 447.882 236.017 444.005 242.097C435.343 255.807 426.294 269.647 417.504 283.227C416.598 284.649 415.953 285.943 415.047 287.365Z" fill="white"/>
<path fill-rule="evenodd" clip-rule="evenodd" d="M51.5693 1.01212C48.2058 1.7061 45.2025 2.52573 44.8939 2.83459C44.5856 3.14344 43.866 3.39545 43.2941 3.39545C42.16 3.39545 35.4564 6.29179 34.8515 7.04335C34.6455 7.29911 33.2981 8.16212 31.8572 8.9608C30.416 9.75947 28.3543 11.2738 27.2755 12.326C26.197 13.3782 24.5125 14.9419 23.5326 15.8004C20.9447 18.0686 18.8771 20.6419 15.8647 25.3472C-2.12796 53.4454 -4.84613 102.255 7.86362 169.04C8.99925 175.01 12.4406 189.914 14.1654 196.335C16.73 205.884 17.7384 209.549 18.3845 211.666C20.1923 217.59 21.6251 222.418 22.4232 225.277C22.906 227.006 23.5416 228.66 23.8358 228.954C24.1299 229.248 24.3733 230.023 24.3754 230.674C24.3786 231.326 24.8837 232.822 25.4984 233.999C26.1138 235.177 26.6168 236.569 26.6168 237.093C26.6168 237.614 27.12 239.006 27.7353 240.186C28.3498 241.363 28.8551 243.083 28.8581 244.009C28.8605 244.935 29.1696 245.693 29.5454 245.693C29.9211 245.693 30.4556 247.038 30.7341 248.684C31.0127 250.33 31.5471 251.675 31.9229 251.675C32.2987 251.675 32.6057 252.212 32.6057 252.871C32.6057 253.527 33.0712 255.126 33.641 256.422C34.21 257.719 35.9392 261.808 37.4835 265.51C41.8113 275.884 47.5185 288.272 48.336 289.066C48.5479 289.272 49.6394 291.291 50.7622 293.553C51.8852 295.814 54.1662 300.021 55.8302 302.901C57.4943 305.779 59.2357 308.892 59.6997 309.818C60.1646 310.744 60.8272 311.502 61.173 311.502C61.5181 311.502 61.8011 311.851 61.8011 312.281C61.8011 312.709 62.1477 313.467 62.5707 313.963C62.9945 314.459 65.3831 317.688 67.8791 321.139C73.6948 329.177 81.2078 336.564 87.3091 340.245C91.9631 343.051 92.3501 343.149 99.2312 343.215C103.143 343.253 107.239 343.032 108.335 342.725C110.741 342.05 115.7 337.401 115.7 335.819C115.7 335.193 115.968 334.685 116.295 334.685C117.283 334.685 119.337 326.991 120.53 318.825C121.148 314.591 122.322 299.012 123.138 284.206C124.52 259.12 125.523 249.563 127.65 241.205C131.639 225.531 139.424 214.016 149.504 208.878C157.988 204.553 159.941 204.186 174.372 204.207L187.753 204.226L183.355 202.208C180.937 201.098 178.267 200.163 177.423 200.132C176.579 200.1 175.467 199.654 174.953 199.14C173.366 197.553 153.651 197.879 149.013 199.568C137.799 203.653 126.487 211.994 120.941 220.27C120.323 221.19 119.476 222.325 119.059 222.789C113.782 228.656 109.501 245.289 107.487 267.752C104.777 297.986 102.099 304.577 93.6563 301.792C92.1937 301.311 90.9967 300.604 90.9967 300.225C90.9967 299.846 90.4913 299.535 89.8736 299.535C89.2562 299.535 88.7508 299.28 88.7508 298.967C88.7508 298.654 87.9932 297.554 87.0665 296.521C84.4516 293.605 80.9766 288.412 78.0743 283.084C71.7852 271.539 67.0376 261.832 62.8971 252.048C62.3753 250.815 61.0974 247.943 60.0585 245.667C59.0186 243.392 57.9375 240.614 57.656 239.492C57.3739 238.37 56.8439 237.267 56.4779 237.041C56.1117 236.814 55.8124 236.111 55.8124 235.479C55.8124 234.844 55.2785 233.099 54.6272 231.596C53.9753 230.095 52.9646 227.76 52.3814 226.41C51.7976 225.06 51.3207 223.313 51.3207 222.527C51.3207 221.744 51.0101 220.909 50.6297 220.675C50.2494 220.441 49.7015 219.17 49.4117 217.852C49.1222 216.532 48.6317 214.938 48.3234 214.308C48.0149 213.677 46.6876 209.628 45.3738 205.309C44.0601 200.99 42.5239 195.943 41.9609 194.092C41.3981 192.241 40.2047 187.698 39.3093 183.996C35.4166 167.906 35.0596 166.102 33.3932 154.083C32.9372 150.793 32.1961 146.586 31.7455 144.735C30.5763 139.925 30.0388 100.261 31.0305 92.0131C32.2044 82.2556 33.2615 75.964 34.2302 72.9615C36.6773 65.3769 37.3675 63.3946 38.3114 61.2393C38.8789 59.9433 39.3431 58.6928 39.3431 58.4612C39.3431 58.2294 40.8417 55.5879 42.6728 52.5914C48.6451 42.8196 55.9307 36.6888 65.1631 33.6645C68.6643 32.5173 71.5397 32.2146 78.2756 32.2848C86.541 32.37 87.9804 32.6191 99.2312 35.9073C101.084 36.4488 104.621 37.4575 107.092 38.1485C109.562 38.8404 112.257 39.6689 113.08 39.9912C113.904 40.3135 116.599 41.1631 119.069 41.8786C121.54 42.5937 124.109 43.4597 124.779 43.8014C125.449 44.1439 127.302 44.6636 128.896 44.9567C130.491 45.2499 131.964 45.715 132.17 45.9903C132.743 46.7569 140.712 48.2794 148.826 49.1716C158.94 50.2843 167.979 49.2814 183.823 45.2888C185.676 44.8222 187.512 44.1231 187.903 43.7356C188.294 43.3475 189.21 43.0303 189.936 43.0303C191.731 43.0303 196.55 40.6799 196.55 39.8049C196.55 39.4005 195.262 39.3055 193.527 39.5829C189.786 40.1805 170.237 38.6997 169.263 37.7447C168.871 37.361 167.784 37.0477 166.846 37.0477C163.841 37.0477 141.796 28.9913 140.404 27.3843C140.198 27.1465 138.683 26.2843 137.036 25.4683C135.389 24.6517 131.178 22.2834 127.678 20.2044C124.178 18.1247 119.462 15.532 117.198 14.4424C109.177 10.5828 102.857 7.88241 101.843 7.88241C101.279 7.88241 100.632 7.58404 100.407 7.21909C100.181 6.85491 98.7297 6.31947 97.1809 6.0308C95.6319 5.74138 94.0285 5.23736 93.6167 4.91056C93.205 4.58374 91.1837 3.91669 89.1251 3.42911C74.4061 -0.0602674 60.9589 -0.925506 51.5693 1.01212Z" fill="white"/>
<path fill-rule="evenodd" clip-rule="evenodd" d="M278.147 22.5226C277.117 22.6985 273.749 23.2205 270.662 23.6818C265.266 24.4886 261.927 25.3052 253.819 27.7979C249.597 29.0954 249.204 29.2457 241.556 32.4732C238.518 33.755 235.571 34.8043 235.005 34.8043C234.441 34.8043 233.98 35.1041 233.98 35.4713C233.98 35.8379 233.056 36.3694 231.928 36.6521C230.801 36.9348 229.705 37.3917 229.497 37.6678C228.926 38.414 223.098 41.4795 208.901 48.4985C192.54 56.587 191.423 57.0777 182.326 60.1758C179.65 61.0875 176.786 62.1194 175.963 62.4702C174.223 63.2106 165.942 65.0883 159.543 66.1935C157.1 66.6155 152.047 66.9684 148.314 66.9774L141.527 66.9938L143.399 68.4565C144.428 69.2612 145.581 69.9269 145.96 69.9358C146.339 69.9448 147.181 70.3965 147.831 70.9394C148.482 71.4816 151.034 72.5383 153.505 73.2875C155.975 74.0362 158.67 74.9192 159.494 75.2507C164.831 77.3955 187.276 75.9804 193.929 73.0788C194.753 72.7199 198.795 71.3409 202.912 70.0144C207.03 68.6877 211.072 67.2973 211.896 66.925C217.454 64.41 236.337 58.0467 244.461 55.9513C254.314 53.4095 268.636 52.8083 276.134 54.6218C290.681 58.1387 299.237 65.662 305.054 80.048C305.386 80.8706 306.073 82.5532 306.582 83.7871C309.312 90.4301 310.799 109.165 309.735 123.533C308.79 136.292 307.718 146.11 307.035 148.263C306.776 149.082 306.246 151.904 305.856 154.535C305.141 159.38 303.892 165.954 301.752 176.144C301.103 179.229 300.271 183.304 299.903 185.199C299.533 187.094 298.875 189.954 298.441 191.555C298.007 193.156 296.933 197.326 296.056 200.822C292.864 213.554 292.952 213.247 287.603 230.125C287.124 231.641 286.483 233.127 286.181 233.427C285.879 233.729 285.632 234.459 285.632 235.047C285.632 235.636 285.173 237.178 284.611 238.474C284.051 239.771 282.994 242.346 282.264 244.196C281.534 246.046 280.479 248.622 279.917 249.919C279.356 251.213 278.896 252.644 278.896 253.097C278.896 253.548 278.56 253.919 278.147 253.919C277.736 253.919 277.398 254.362 277.398 254.902C277.398 256.627 268.462 273.5 264.057 280.091C254.533 294.341 243.112 302.569 236.203 300.164C233.25 299.135 230.986 297.33 230.986 296.004C230.986 295.478 230.733 295.048 230.424 295.048C229.345 295.048 226.441 283.78 225.028 274.109C223.688 264.925 222.756 259.522 222.064 256.91C221.683 255.471 220.783 252.105 220.064 249.431C218.4 243.243 213.507 232.739 210.486 228.869C207.542 225.099 202.728 220.609 200.292 219.359C199.263 218.831 198.253 218.203 198.047 217.965C197.313 217.116 192.782 215.144 190.381 214.631C189.039 214.346 187.604 213.844 187.192 213.516C185.734 212.356 171.843 211.478 165.355 212.135C157.303 212.952 150.618 216.021 146.345 220.871C143.46 224.147 139.833 230.414 140.461 231.04C140.636 231.215 142.754 229.535 145.169 227.308C147.584 225.08 149.834 223.257 150.169 223.257C150.504 223.257 151.223 222.834 151.767 222.318C152.311 221.801 154.777 220.371 157.248 219.14C161.382 217.079 162.365 216.901 169.6 216.905C176.904 216.909 177.721 217.06 181.157 219.063C186.422 222.133 191.378 227.615 194.215 233.505C195.562 236.301 196.932 239.104 197.26 239.734C197.588 240.365 198.11 242.036 198.421 243.449C198.732 244.861 199.256 246.532 199.586 247.164C201.64 251.09 204.684 273.7 204.744 285.472C204.791 294.963 206.797 317.971 207.762 320.1C208.135 320.924 208.66 322.774 208.93 324.215C209.592 327.753 213.945 336.739 216.449 339.736C217.568 341.075 220.203 343.253 222.303 344.575C225.864 346.815 226.573 346.979 232.931 347C236.678 347.013 240.55 346.649 241.539 346.191C242.529 345.733 244.667 344.782 246.293 344.077C255.491 340.081 265.883 330.304 272.798 319.14C274.253 316.79 275.638 314.697 275.877 314.493C277.324 313.243 289.754 289.917 292.418 283.456C292.756 282.635 293.85 280.11 294.85 277.849C296.886 273.234 299.439 267.003 301.129 262.517C301.75 260.874 302.516 259.011 302.833 258.381C303.15 257.751 303.648 256.156 303.937 254.836C304.226 253.519 304.773 252.248 305.154 252.014C305.535 251.779 305.848 250.849 305.85 249.949C305.852 249.046 306.358 247.345 306.973 246.168C307.588 244.988 308.09 243.458 308.09 242.766C308.09 242.072 308.386 241.184 308.75 240.795C309.112 240.403 310.139 237.559 311.033 234.474C311.929 231.389 312.98 228.281 313.371 227.568C313.761 226.853 314.08 225.799 314.08 225.222C314.08 224.647 314.612 222.372 315.261 220.164C315.912 217.959 316.952 214.301 317.576 212.04C318.199 209.777 318.995 206.917 319.346 205.683C319.695 204.449 320.68 200.411 321.533 196.709C322.387 193.008 323.397 188.633 323.778 186.987C324.419 184.228 325.346 179.692 327.57 168.441C332.674 142.625 335.119 109.744 333.613 87.1523C332.766 74.4296 332.483 72.3625 330.087 61.3521C326.393 44.3824 321.318 36.0209 310.878 29.6989C305.658 26.5378 301.322 24.8237 295.626 23.6684C291.058 22.7417 280.8 22.0694 278.147 22.5226Z" fill="white"/>
</svg>
