<svg width="321" height="163" viewBox="0 0 321 163" fill="none" xmlns="http://www.w3.org/2000/svg">
<path d="M304.516 57.24C304.828 55.94 305.426 54.978 306.31 54.354C307.246 53.678 308.286 53.288 309.43 53.184C310.626 53.08 311.874 53.236 313.174 53.652C314.474 54.016 315.644 54.588 316.684 55.368C317.204 55.784 317.62 56.382 317.932 57.162C318.244 57.89 318.4 58.618 318.4 59.346C318.4 61.062 318.296 62.804 318.088 64.572C317.932 66.288 317.75 68.03 317.542 69.798C317.282 71.93 316.996 74.036 316.684 76.116C316.424 78.196 316.216 80.328 316.06 82.512C315.8 84.956 314.604 86.282 312.472 86.49C311.484 86.594 310.496 86.62 309.508 86.568C308.572 86.516 307.61 86.412 306.622 86.256C305.478 86.048 304.62 85.554 304.048 84.774C303.528 83.994 303.242 83.058 303.19 81.966C302.826 77.91 302.722 73.776 302.878 69.564C303.086 65.3 303.632 61.192 304.516 57.24ZM307.48 38.442C307.428 36.258 307.714 34.802 308.338 34.074C309.014 33.346 310.418 32.93 312.55 32.826C313.174 32.774 313.772 32.748 314.344 32.748C314.968 32.748 315.592 32.8 316.216 32.904C317.932 33.164 319.05 33.684 319.57 34.464C320.09 35.192 320.194 36.414 319.882 38.13C319.778 38.546 319.7 38.936 319.648 39.3C319.648 39.612 319.596 39.976 319.492 40.392C319.232 41.536 318.79 42.55 318.166 43.434C317.542 44.266 316.788 44.916 315.904 45.384C315.02 45.8 314.058 46.008 313.018 46.008C311.978 46.008 310.912 45.722 309.82 45.15C309.3 44.89 308.832 44.474 308.416 43.902C308.052 43.278 307.766 42.68 307.558 42.108C307.35 41.536 307.272 40.938 307.324 40.314C307.428 39.69 307.48 39.066 307.48 38.442Z" fill="url(#paint0_linear_392_2)"/>
<path d="M254.009 68.55C254.529 67.822 254.997 67.172 255.413 66.6C255.829 65.976 256.245 65.352 256.661 64.728C258.481 61.972 260.457 59.346 262.589 56.85C264.721 54.354 267.061 52.092 269.609 50.064C271.585 48.452 273.691 47.36 275.927 46.788C278.163 46.216 280.529 46.268 283.025 46.944C286.509 47.88 289.031 50.116 290.591 53.652C291.579 55.784 292.385 58.176 293.009 60.828C293.685 63.48 294.205 66.184 294.569 68.94C294.985 71.644 295.271 74.296 295.427 76.896C295.635 79.444 295.791 81.68 295.895 83.604C295.999 85.528 295.713 86.958 295.037 87.894C294.361 88.778 293.139 89.272 291.371 89.376C290.227 89.48 289.213 89.48 288.329 89.376C287.445 89.272 286.665 88.986 285.989 88.518C285.365 88.05 284.819 87.348 284.351 86.412C283.935 85.476 283.597 84.228 283.337 82.668C282.765 78.924 282.219 75.232 281.699 71.592C281.231 67.952 280.529 64.208 279.593 60.36C279.333 59.268 279.021 58.332 278.657 57.552C278.293 56.72 277.799 56.174 277.175 55.914C276.603 55.654 275.901 55.732 275.069 56.148C274.289 56.564 273.353 57.422 272.261 58.722C269.609 61.79 267.269 65.066 265.241 68.55C263.213 71.982 261.523 75.7 260.171 79.704C259.443 81.732 258.455 83.188 257.207 84.072C255.959 84.956 254.477 85.424 252.761 85.476C251.045 85.58 249.511 85.216 248.159 84.384C246.859 83.552 245.845 82.148 245.117 80.172C244.909 79.704 244.649 78.69 244.337 77.13C244.077 75.57 243.739 73.88 243.323 72.06C242.959 70.188 242.491 68.394 241.919 66.678C241.347 64.91 240.697 63.584 239.969 62.7C239.241 61.764 238.383 61.504 237.395 61.92C236.459 62.284 235.393 63.662 234.197 66.054C233.573 67.302 233.027 68.654 232.559 70.11C232.091 71.566 231.649 73.074 231.233 74.634C230.817 76.194 230.401 77.78 229.985 79.392C229.621 80.952 229.179 82.512 228.659 84.072C228.191 85.528 227.567 86.594 226.787 87.27C226.059 87.946 225.045 88.336 223.745 88.44C223.121 88.492 222.471 88.544 221.795 88.596C221.119 88.596 220.417 88.544 219.689 88.44C218.181 88.232 217.011 87.738 216.179 86.958C215.399 86.126 214.879 84.878 214.619 83.214C214.255 80.978 213.943 78.742 213.683 76.506C213.475 74.27 213.345 72.034 213.293 69.798C213.033 65.17 212.877 60.594 212.825 56.07C212.825 51.546 213.189 46.996 213.917 42.42C214.385 39.196 215.581 37.012 217.505 35.868C219.429 34.672 221.743 34.698 224.447 35.946C226.007 36.674 226.865 37.896 227.021 39.612C227.177 41.952 227.333 44.266 227.489 46.554C227.645 48.842 227.775 51.156 227.879 53.496C227.931 54.172 227.931 54.874 227.879 55.602C227.879 56.33 227.879 57.266 227.879 58.41C228.399 57.682 228.815 57.136 229.127 56.772C229.491 56.356 229.803 55.966 230.063 55.602C231.259 53.834 232.715 52.56 234.431 51.78C236.199 50.948 237.993 50.584 239.813 50.688C241.685 50.792 243.453 51.39 245.117 52.482C246.781 53.522 248.107 55.03 249.095 57.006C249.979 58.826 250.785 60.698 251.513 62.622C252.293 64.494 253.125 66.47 254.009 68.55Z" fill="url(#paint1_linear_392_2)"/>
<path d="M192.152 24.09C192.204 23.414 192.256 22.686 192.308 21.906C192.412 21.074 192.568 20.294 192.776 19.566C192.984 18.786 193.296 18.084 193.712 17.46C194.128 16.836 194.7 16.394 195.428 16.134C196.936 15.614 198.444 15.38 199.952 15.432C201.512 15.432 203.02 15.796 204.476 16.524C205.36 16.94 205.958 17.59 206.27 18.474C206.582 19.306 206.764 20.164 206.816 21.048C206.868 24.012 206.92 26.898 206.972 29.706C207.024 32.514 206.998 35.348 206.894 38.208C206.686 45.592 206.452 52.898 206.192 60.126C205.984 67.302 205.75 74.53 205.49 81.81C205.386 84.046 204.944 85.684 204.164 86.724C203.384 87.712 202.084 88.336 200.264 88.596C198.028 88.856 196.078 88.492 194.414 87.504C192.802 86.464 191.84 84.956 191.528 82.98C191.216 81.68 191.008 80.406 190.904 79.158C190.8 77.858 190.722 76.558 190.67 75.258C190.618 70.838 190.618 66.496 190.67 62.232C190.722 57.968 190.8 53.756 190.904 49.596C191.06 45.384 191.242 41.172 191.45 36.96C191.658 32.748 191.892 28.458 192.152 24.09Z" fill="url(#paint2_linear_392_2)"/>
<path d="M169.616 57.24C169.928 55.94 170.526 54.978 171.41 54.354C172.346 53.678 173.386 53.288 174.53 53.184C175.726 53.08 176.974 53.236 178.274 53.652C179.574 54.016 180.744 54.588 181.784 55.368C182.304 55.784 182.72 56.382 183.032 57.162C183.344 57.89 183.5 58.618 183.5 59.346C183.5 61.062 183.396 62.804 183.188 64.572C183.032 66.288 182.85 68.03 182.642 69.798C182.382 71.93 182.096 74.036 181.784 76.116C181.524 78.196 181.316 80.328 181.16 82.512C180.9 84.956 179.704 86.282 177.572 86.49C176.584 86.594 175.596 86.62 174.608 86.568C173.672 86.516 172.71 86.412 171.722 86.256C170.578 86.048 169.72 85.554 169.148 84.774C168.628 83.994 168.342 83.058 168.29 81.966C167.926 77.91 167.822 73.776 167.978 69.564C168.186 65.3 168.732 61.192 169.616 57.24ZM172.58 38.442C172.528 36.258 172.814 34.802 173.438 34.074C174.114 33.346 175.518 32.93 177.65 32.826C178.274 32.774 178.872 32.748 179.444 32.748C180.068 32.748 180.692 32.8 181.316 32.904C183.032 33.164 184.15 33.684 184.67 34.464C185.19 35.192 185.294 36.414 184.982 38.13C184.878 38.546 184.8 38.936 184.748 39.3C184.748 39.612 184.696 39.976 184.592 40.392C184.332 41.536 183.89 42.55 183.266 43.434C182.642 44.266 181.888 44.916 181.004 45.384C180.12 45.8 179.158 46.008 178.118 46.008C177.078 46.008 176.012 45.722 174.92 45.15C174.4 44.89 173.932 44.474 173.516 43.902C173.152 43.278 172.866 42.68 172.658 42.108C172.45 41.536 172.372 40.938 172.424 40.314C172.528 39.69 172.58 39.066 172.58 38.442Z" fill="url(#paint3_linear_392_2)"/>
<path d="M302.596 131.402C305.148 128.729 307.943 125.449 310.069 123.322C312.196 121.135 313.107 121.742 311.041 124.476C309.036 127.15 306.485 129.276 304.176 131.524C303.568 132.132 302.779 132.618 302.11 133.104C301.807 133.286 301.381 133.529 300.956 133.65C299.437 134.076 298.465 133.225 298.344 131.706C298.283 131.099 298.344 130.43 298.526 129.823C299.133 126.664 300.531 123.869 301.989 121.074C302.232 120.527 302.536 119.981 302.839 119.555C303.265 118.826 303.69 118.158 303.022 117.49C303.143 117.247 303.265 117.064 303.325 117.004C304.844 116.335 305.513 114.877 306.424 113.662C308.733 110.381 311.041 106.979 313.836 104.124C314.322 103.637 314.869 103.151 315.416 102.726C315.659 102.422 316.084 102.179 316.509 101.997C317.056 101.754 317.664 101.572 318.21 101.997C318.757 102.483 318.757 103.151 318.453 103.698C318.028 104.61 317.603 105.46 317.056 106.25C314.444 109.652 311.406 112.568 308.186 115.363C307.214 116.275 306.302 117.186 305.513 118.34C303.872 121.256 302.293 124.112 301.078 127.15C300.774 128.182 300.47 129.276 300.227 130.309C299.498 133.104 301.685 132.192 302.596 131.402ZM315.476 105.096C314.018 106.493 308.429 112.629 308.064 114.391C310.008 112.508 319.972 101.997 315.476 105.096Z" fill="black"/>
<path d="M302.191 123.201C300.369 124.902 293.989 127.818 293.989 123.626C293.989 122.958 294.111 122.289 294.232 121.499C292.167 122.775 290.223 124.112 288.096 125.205C287.61 125.57 286.942 125.631 286.395 125.692C285.605 125.813 284.876 125.57 284.512 124.902C284.086 124.173 284.269 123.504 284.694 122.897C285.058 122.411 285.362 122.046 285.848 121.621C287.975 119.798 290.466 118.826 293.382 119.069C293.807 119.13 294.293 119.008 294.658 118.583C295.204 118.036 295.751 117.429 296.298 116.882C296.48 116.639 296.723 116.335 296.966 116.275C297.209 116.214 297.635 116.214 297.878 116.335C298.06 116.578 298.181 116.882 298.121 117.247C298.06 117.672 297.878 118.036 297.635 118.462C297.149 119.495 293.989 125.327 297.695 124.233C298.667 123.99 299.822 123.261 300.976 122.715C301.28 122.593 301.644 122.289 302.009 122.35C302.434 122.472 302.738 122.958 302.191 123.201ZM286.213 123.93C288.582 123.504 291.438 121.864 293.078 120.284C290.648 120.467 287.61 121.864 286.213 123.93Z" fill="black"/>
<path d="M274.865 109.166C272.981 109.409 272.799 108.559 272.92 108.316C273.163 107.951 273.589 107.465 275.29 107.587C277.963 107.83 280.94 107.83 283.735 107.465C283.856 107.404 283.978 107.283 284.039 107.161C286.287 104.002 285.922 104.184 288.231 101.146C288.474 100.66 289.081 100.114 289.567 100.539C289.75 100.66 289.81 101.207 289.81 101.511C289.75 101.815 289.385 102.179 289.264 102.422C287.441 104.913 288.291 104.063 285.922 107.526C289.385 108.133 297.222 108.012 303.359 107.343C305.303 107.161 307.065 106.979 308.219 107.04C310.224 107.161 309.92 108.073 308.219 108.437C303.784 109.227 288.717 109.105 284.889 108.984C282.094 112.508 278.753 117.793 276.991 121.135C275.533 123.99 273.528 128.79 277.477 127.15C279.239 126.481 282.216 124.476 284.099 122.897C284.464 122.654 284.707 122.35 285.071 122.168C285.557 121.864 285.922 121.621 286.287 122.107C286.59 122.593 286.347 123.079 285.922 123.444C284.889 124.355 280.758 127.332 277.599 128.425C272.131 130.309 273.832 124.537 274.986 121.864C276.87 117.368 280.515 112.629 282.763 109.045C280.09 109.105 277.113 109.166 274.865 109.166Z" fill="black"/>
<path d="M266.454 126.542C268.581 125.752 271.619 124.051 273.745 122.958C276.297 121.803 276.904 123.383 274.535 124.476C272.044 125.631 269.431 126.724 266.88 127.757C266.029 128.122 265.179 128.182 264.389 127.879C263.66 127.514 263.356 126.846 263.538 125.813C263.72 125.023 264.085 124.476 264.267 123.747C264.996 121.985 265.665 120.649 263.113 121.499C261.776 122.228 260.379 123.018 259.103 123.808C257.888 124.659 256.734 125.57 255.458 126.481C255.276 126.664 255.093 126.907 254.79 127.028C254.425 127.21 253.939 127.514 253.453 127.028C253.028 126.603 253.149 126.117 253.453 125.752C254.121 124.78 254.729 123.808 255.336 122.836C256.126 121.803 256.855 120.71 257.584 119.616C257.766 119.373 257.888 119.191 258.01 118.887C258.617 118.097 259.164 117.733 259.528 118.097C259.893 118.34 259.771 118.887 259.164 119.859C258.617 120.71 258.131 121.621 257.523 122.411C257.098 123.018 254.303 125.935 256.308 124.233C258.07 122.775 260.136 121.378 262.141 120.406C263.842 119.555 266.333 118.765 266.576 121.439C266.758 122.715 265.847 123.747 265.3 124.962C264.753 126.481 264.814 127.21 266.454 126.542Z" fill="black"/>
<path d="M254.858 122.411C255.223 122.229 255.587 122.107 255.952 121.985C256.438 121.925 256.742 121.985 256.985 122.411C257.167 122.836 256.985 123.261 256.62 123.444C253.643 124.962 250.302 125.752 247.082 125.935C244.895 126.056 241.553 125.813 242.404 122.532C242.95 120.953 243.254 120.527 244.591 119.798C246.049 119.13 247.689 118.887 249.147 118.887C249.755 118.948 250.241 119.312 250.362 119.92C250.484 120.527 250.241 121.074 249.694 121.378C248.904 121.864 247.993 122.229 247.021 122.532C246.292 122.715 245.441 122.775 244.651 122.775C243.436 122.775 243.436 123.444 243.983 123.99C245.563 125.57 253.157 123.99 254.858 122.411ZM248.722 120.649C249.816 119.252 246.17 120.649 244.165 121.985C245.381 122.107 247.75 121.56 248.722 120.649Z" fill="black"/>
<path d="M189.902 139.24C183.28 142.035 175.746 145.68 173.195 143.979C173.195 143.857 173.134 143.796 173.134 143.675C171.676 141.913 182.429 140.333 190.692 136.81C191.36 136.506 191.846 136.202 192.332 135.473C198.894 125.388 205.334 115.302 211.896 105.156C212.139 104.792 212.321 104.367 212.625 103.82C211.409 103.82 210.437 103.698 209.405 103.82C203.997 104.306 199.015 104.913 193.912 106.068C193.487 106.189 192.879 106.675 192.454 105.885C192.332 105.399 192.758 104.306 193.669 104.124C199.927 102.058 206.367 102.119 212.807 102.119C213.536 102.119 213.9 101.815 214.326 101.268C214.933 100.235 215.48 99.2631 216.209 98.4126C216.574 97.8658 216.938 97.5012 217.424 97.1367C217.546 96.9544 217.971 96.9544 218.032 97.1367C218.214 97.2582 218.275 97.6835 218.214 97.9265C218.153 98.291 217.971 98.5948 217.728 98.8378C217.12 99.9314 216.574 100.964 215.845 102.119C217.85 102.301 219.672 102.422 221.556 102.726C225.748 103.394 230 104.124 233.95 105.642C235.651 106.25 237.23 107.04 238.567 108.376C240.45 110.199 240.754 112.508 239.478 114.877C238.567 116.578 237.17 117.854 235.772 118.948C232.734 121.378 229.454 123.322 226.051 124.902C221.191 127.21 216.331 129.337 211.349 131.402C205.699 133.65 200.048 135.534 194.398 137.66C193.305 138.025 192.636 138.572 192.029 139.483C191.117 140.941 190.084 142.824 189.052 144.222C184.556 149.507 188.748 141.549 189.902 139.24ZM195.066 134.987C195.127 135.109 195.127 135.169 195.188 135.23C195.492 135.169 195.674 135.109 195.856 134.987C197.436 134.501 199.076 133.893 200.717 133.347C208.493 130.43 216.148 127.514 223.682 123.93C227.57 122.107 231.276 120.041 234.679 117.247C235.711 116.396 236.684 115.424 237.473 114.27C238.931 112.447 238.628 110.624 236.744 109.348C235.59 108.559 234.253 107.89 232.917 107.344C227.327 105.46 221.616 104.427 215.723 104.002C214.933 103.941 214.447 104.184 214.143 104.853C212.382 107.89 210.498 110.867 208.676 113.723C204.605 120.163 200.352 126.664 196.221 133.043C195.795 133.711 195.492 134.319 195.066 134.987Z" fill="black"/>
<path fill-rule="evenodd" clip-rule="evenodd" d="M24.2368 0.475433C22.656 0.801426 21.2445 1.18644 21.0995 1.33152C20.9546 1.4766 20.6164 1.59498 20.3476 1.59498C19.8146 1.59498 16.664 2.95551 16.3797 3.30855C16.2829 3.42869 15.6496 3.83408 14.9724 4.20925C14.2951 4.58442 13.3261 5.29578 12.8191 5.79003C12.3122 6.28429 11.5205 7.01883 11.06 7.42211C9.8437 8.48756 8.87194 9.69633 7.45617 11.9066C-1.00011 25.1055 -2.27761 48.0332 3.69579 79.4048C4.22952 82.2094 5.84689 89.2105 6.65751 92.2267C7.86288 96.7119 8.3368 98.4335 8.64043 99.428C9.49011 102.211 10.1635 104.479 10.5386 105.822C10.7655 106.634 11.0642 107.411 11.2025 107.549C11.3407 107.687 11.4551 108.051 11.4561 108.357C11.4576 108.663 11.695 109.366 11.9839 109.919C12.2731 110.472 12.5095 111.126 12.5095 111.372C12.5095 111.617 12.746 112.271 13.0352 112.825C13.324 113.378 13.5615 114.186 13.5629 114.621C13.564 115.056 13.7093 115.412 13.8859 115.412C14.0625 115.412 14.3137 116.044 14.4446 116.817C14.5755 117.59 14.8267 118.222 15.0033 118.222C15.1799 118.222 15.3242 118.474 15.3242 118.784C15.3242 119.092 15.543 119.843 15.8108 120.452C16.0782 121.061 16.8909 122.982 17.6167 124.721C19.6507 129.594 22.333 135.413 22.7172 135.786C22.8168 135.883 23.3298 136.831 23.8575 137.894C24.3853 138.956 25.4573 140.932 26.2394 142.285C27.0215 143.637 27.8399 145.099 28.058 145.534C28.2765 145.969 28.5879 146.325 28.7504 146.325C28.9126 146.325 29.0456 146.489 29.0456 146.691C29.0456 146.892 29.2085 147.248 29.4073 147.481C29.6065 147.714 30.7291 149.231 31.9022 150.852C34.6355 154.628 38.1665 158.098 41.034 159.827C43.2213 161.145 43.4032 161.191 46.6372 161.222C48.4755 161.24 50.4008 161.136 50.9159 160.992C52.0466 160.675 54.3775 158.491 54.3775 157.748C54.3775 157.454 54.5031 157.215 54.6569 157.215C55.1213 157.215 56.0867 153.601 56.6472 149.765C56.9378 147.776 57.4895 140.458 57.873 133.503C58.5228 121.719 58.9939 117.23 59.9938 113.304C61.8684 105.941 65.5271 100.532 70.2645 98.1184C74.2522 96.087 75.1701 95.9145 81.9524 95.9243L88.241 95.9334L86.1743 94.9853C85.0376 94.4637 83.7829 94.0249 83.3861 94.0102C82.9896 93.995 82.4671 93.7857 82.2254 93.544C81.4795 92.7989 72.2136 92.9517 70.034 93.7453C64.7636 95.664 59.4471 99.5823 56.8404 103.47C56.5501 103.902 56.1522 104.435 55.9562 104.653C53.4758 107.409 51.464 115.222 50.5172 125.774C49.2436 139.976 47.9851 143.072 44.0171 141.764C43.3297 141.538 42.7671 141.206 42.7671 141.028C42.7671 140.85 42.5296 140.704 42.2393 140.704C41.9491 140.704 41.7116 140.584 41.7116 140.437C41.7116 140.29 41.3555 139.773 40.92 139.288C39.691 137.918 38.0578 135.479 36.6938 132.976C33.738 127.553 31.5067 122.993 29.5607 118.397C29.3155 117.818 28.7149 116.469 28.2266 115.4C27.7379 114.331 27.2298 113.026 27.0975 112.499C26.9649 111.972 26.7158 111.454 26.5438 111.348C26.3717 111.241 26.231 110.911 26.231 110.614C26.231 110.316 25.9801 109.496 25.674 108.79C25.3676 108.085 24.8926 106.988 24.6185 106.354C24.3441 105.72 24.12 104.899 24.12 104.53C24.12 104.162 23.974 103.77 23.7952 103.66C23.6165 103.55 23.359 102.953 23.2228 102.334C23.0867 101.714 22.8562 100.965 22.7113 100.669C22.5663 100.373 21.9425 98.4708 21.325 96.4421C20.7076 94.4134 19.9856 92.0423 19.721 91.1728C19.4565 90.3034 18.8956 88.1693 18.4748 86.4305C16.6453 78.8722 16.4775 78.0249 15.6943 72.379C15.48 70.8334 15.1317 68.8574 14.9199 67.988C14.3704 65.7285 14.1178 47.0967 14.5839 43.2223C15.1356 38.6388 15.6324 35.6834 16.0877 34.273C17.2378 30.7102 17.5622 29.779 18.0058 28.7666C18.2725 28.1578 18.4907 27.5704 18.4907 27.4616C18.4907 27.3527 19.195 26.1119 20.0556 24.7043C22.8625 20.1141 26.2866 17.2342 30.6257 15.8136C32.2712 15.2747 33.6226 15.1325 36.7884 15.1655C40.673 15.2055 41.3495 15.3225 46.6372 16.8671C47.508 17.1215 49.1704 17.5953 50.3315 17.9199C51.4925 18.2449 52.7591 18.6341 53.1461 18.7855C53.5331 18.9369 54.7997 19.336 55.9608 19.6721C57.1218 20.008 58.3293 20.4148 58.6442 20.5753C58.9591 20.7362 59.8299 20.9803 60.5793 21.118C61.3287 21.2557 62.0211 21.4742 62.1178 21.6035C62.3873 21.9636 66.1326 22.6788 69.9461 23.0979C74.6993 23.6206 78.9477 23.1495 86.3942 21.274C87.265 21.0548 88.1277 20.7264 88.3117 20.5444C88.4954 20.3621 88.9257 20.2131 89.2673 20.2131C90.1106 20.2131 92.3754 19.109 92.3754 18.698C92.3754 18.508 91.7702 18.4634 90.9547 18.5937C89.1966 18.8744 80.0088 18.1788 79.5511 17.7302C79.3671 17.55 78.8559 17.4028 78.415 17.4028C77.0028 17.4028 66.642 13.6184 65.988 12.8635C65.8912 12.7518 65.1788 12.3468 64.4047 11.9635C63.6307 11.5799 61.6517 10.4674 60.0068 9.49083C58.362 8.5139 56.1455 7.296 55.0812 6.78417C51.3117 4.97119 48.3411 3.70269 47.8648 3.70269C47.5995 3.70269 47.2955 3.56253 47.1896 3.3911C47.0837 3.22003 46.4015 2.96851 45.6736 2.83291C44.9456 2.69696 44.192 2.4602 43.9985 2.30669C43.805 2.15317 42.855 1.83983 41.8875 1.61079C34.9698 -0.0283102 28.6498 -0.434748 24.2368 0.475433Z" fill="black"/>
<path fill-rule="evenodd" clip-rule="evenodd" d="M130.725 10.5798C130.241 10.6624 128.658 10.9076 127.207 11.1243C124.671 11.5033 123.102 11.8869 119.291 13.0578C117.307 13.6673 117.122 13.7379 113.528 15.254C112.1 15.8561 110.715 16.349 110.449 16.349C110.184 16.349 109.967 16.4898 109.967 16.6623C109.967 16.8345 109.533 17.0842 109.003 17.217C108.473 17.3498 107.958 17.5644 107.86 17.6941C107.592 18.0446 104.853 19.4846 98.1806 22.7817C90.491 26.5812 89.966 26.8117 85.6906 28.267C84.4328 28.6953 83.087 29.18 82.7 29.3448C81.8823 29.6926 77.9904 30.5746 74.9829 31.0938C73.8349 31.292 71.46 31.4578 69.7054 31.462L66.5157 31.4697L67.3953 32.1568C67.8791 32.5348 68.4209 32.8475 68.5989 32.8517C68.7773 32.8559 69.1731 33.0681 69.4785 33.3231C69.7842 33.5778 70.984 34.0742 72.145 34.4261C73.3061 34.7778 74.5727 35.1926 74.9597 35.3483C77.4683 36.3558 88.0169 35.6911 91.144 34.3281C91.531 34.1595 93.4309 33.5117 95.3659 32.8886C97.301 32.2654 99.2009 31.6123 99.5879 31.4374C102.2 30.256 111.075 27.2669 114.893 26.2826C119.524 25.0886 126.255 24.8062 129.779 25.6581C136.616 27.3101 140.637 30.8441 143.371 37.6018C143.527 37.9882 143.85 38.7786 144.089 39.3582C145.372 42.4787 146.071 51.2794 145.571 58.0287C145.127 64.022 144.623 68.634 144.302 69.645C144.18 70.03 143.931 71.3557 143.748 72.5912C143.412 74.8672 142.825 77.9553 141.819 82.742C141.514 84.191 141.123 86.1052 140.95 86.9953C140.776 87.8855 140.467 89.2292 140.263 89.9813C140.059 90.7334 139.554 92.6921 139.142 94.3344C137.642 100.315 137.683 100.171 135.169 108.099C134.944 108.811 134.643 109.509 134.501 109.65C134.359 109.792 134.243 110.135 134.243 110.411C134.243 110.688 134.027 111.412 133.763 112.021C133.5 112.63 133.003 113.84 132.66 114.709C132.317 115.578 131.821 116.788 131.557 117.397C131.293 118.005 131.077 118.677 131.077 118.89C131.077 119.102 130.919 119.276 130.725 119.276C130.532 119.276 130.373 119.484 130.373 119.738C130.373 120.548 126.173 128.474 124.103 131.57C119.627 138.264 114.259 142.129 111.012 140.999C109.624 140.516 108.56 139.668 108.56 139.045C108.56 138.798 108.441 138.596 108.296 138.596C107.789 138.596 106.424 133.303 105.76 128.76C105.13 124.446 104.692 121.908 104.367 120.681C104.188 120.005 103.765 118.424 103.427 117.168C102.645 114.261 100.345 109.327 98.9254 107.509C97.5417 105.738 95.2794 103.629 94.1345 103.042C93.6508 102.794 93.1758 102.499 93.079 102.387C92.7342 101.988 90.6046 101.062 89.4763 100.821C88.8455 100.687 88.171 100.451 87.9775 100.297C87.2921 99.7523 80.7639 99.3399 77.7145 99.6483C73.9299 100.032 70.7884 101.474 68.7801 103.752C67.4242 105.291 65.7195 108.235 66.0147 108.529C66.0967 108.611 67.0924 107.822 68.2274 106.776C69.3624 105.729 70.4197 104.873 70.5773 104.873C70.7346 104.873 71.0727 104.674 71.3284 104.432C71.5839 104.189 72.7431 103.517 73.9042 102.939C75.8474 101.971 76.309 101.887 79.7094 101.889C83.1423 101.891 83.5265 101.962 85.141 102.903C87.6154 104.345 89.9449 106.92 91.2784 109.687C91.9113 111 92.5552 112.317 92.7093 112.613C92.8634 112.909 93.1089 113.694 93.255 114.358C93.401 115.021 93.6472 115.806 93.8024 116.103C94.7678 117.947 96.1987 128.568 96.2265 134.098C96.249 138.556 97.1916 149.364 97.6451 150.364C97.8203 150.751 98.0673 151.62 98.194 152.297C98.505 153.959 100.551 158.18 101.728 159.588C102.254 160.217 103.492 161.24 104.479 161.861C106.153 162.913 106.486 162.99 109.474 163C111.235 163.006 113.055 162.835 113.52 162.62C113.985 162.405 114.99 161.958 115.754 161.627C120.077 159.75 124.961 155.157 128.211 149.913C128.895 148.809 129.546 147.826 129.658 147.73C130.338 147.143 136.18 136.186 137.432 133.151C137.591 132.765 138.105 131.579 138.575 130.517C139.532 128.349 140.732 125.422 141.526 123.315C141.818 122.543 142.178 121.668 142.327 121.372C142.476 121.076 142.71 120.327 142.846 119.707C142.982 119.088 143.239 118.491 143.418 118.381C143.597 118.271 143.744 117.834 143.745 117.411C143.746 116.987 143.984 116.188 144.273 115.635C144.562 115.081 144.798 114.362 144.798 114.037C144.798 113.711 144.937 113.294 145.108 113.111C145.278 112.927 145.761 111.591 146.181 110.142C146.602 108.693 147.096 107.233 147.28 106.898C147.463 106.562 147.613 106.067 147.613 105.796C147.613 105.526 147.863 104.457 148.168 103.42C148.474 102.384 148.963 100.666 149.256 99.6037C149.549 98.541 149.923 97.1974 150.088 96.6178C150.252 96.0381 150.715 94.1412 151.116 92.4023C151.517 90.6635 151.992 88.6084 152.171 87.8356C152.472 86.5394 152.908 84.4085 153.953 79.1234C156.352 66.9966 157.501 51.5513 156.793 40.939C156.395 34.9626 156.262 33.9916 155.136 28.8196C153.4 20.8482 151.015 16.9205 146.108 13.9508C143.655 12.4659 141.617 11.6607 138.94 11.118C136.793 10.6827 131.972 10.3669 130.725 10.5798Z" fill="url(#paint4_linear_392_2)"/>
<defs>
<linearGradient id="paint0_linear_392_2" x1="662.241" y1="-65.8344" x2="662.241" y2="158.175" gradientUnits="userSpaceOnUse">
<stop stop-color="#24BCDC"/>
<stop offset="1" stop-color="#24DCB0"/>
</linearGradient>
<linearGradient id="paint1_linear_392_2" x1="484.088" y1="-71.7977" x2="484.088" y2="149.67" gradientUnits="userSpaceOnUse">
<stop stop-color="#24BCDC"/>
<stop offset="1" stop-color="#24DCB0"/>
</linearGradient>
<linearGradient id="paint2_linear_392_2" x1="2891.59" y1="-9.84621" x2="2891.59" y2="154.817" gradientUnits="userSpaceOnUse">
<stop stop-color="#24BCDC"/>
<stop offset="1" stop-color="#24DCB0"/>
</linearGradient>
<linearGradient id="paint3_linear_392_2" x1="3165.24" y1="-65.8344" x2="3165.24" y2="158.175" gradientUnits="userSpaceOnUse">
<stop stop-color="#24BCDC"/>
<stop offset="1" stop-color="#24DCB0"/>
</linearGradient>
<linearGradient id="paint4_linear_392_2" x1="78.5" y1="0" x2="78.5" y2="163" gradientUnits="userSpaceOnUse">
<stop stop-color="#24BCDC"/>
<stop offset="1" stop-color="#24DCB0"/>
</linearGradient>
</defs>
</svg>
